<svg xmlns="http://www.w3.org/2000/svg" width="397.442" height="372.064" viewBox="0 0 397.442 372.064">
  <g id="signup" transform="translate(-52.459 -54.952)">
    <g id="Background_Complete">
      <rect id="Rectangle_37" data-name="Rectangle 37" width="33.122" height="0.25" transform="translate(416.779 398.494)" fill="#ebebeb"/>
      <rect id="Rectangle_38" data-name="Rectangle 38" width="8.693" height="0.25" transform="translate(322.527 401.208)" fill="#ebebeb"/>
      <rect id="Rectangle_39" data-name="Rectangle 39" width="19.192" height="0.25" transform="translate(396.586 389.208)" fill="#ebebeb"/>
      <rect id="Rectangle_40" data-name="Rectangle 40" width="43.193" height="0.25" transform="translate(52.459 390.888)" fill="#ebebeb"/>
      <rect id="Rectangle_41" data-name="Rectangle 41" width="6.333" height="0.25" transform="translate(104.556 390.888)" fill="#ebebeb"/>
      <rect id="Rectangle_42" data-name="Rectangle 42" width="93.676" height="0.25" transform="translate(131.471 395.111)" fill="#ebebeb"/>
      <g id="Group_55" data-name="Group 55">
        <path id="Path_245" data-name="Path 245" d="M211.247,337.8H44.522c-2.717,0-4.928-2.561-4.928-5.708V60.66c0-3.147,2.211-5.708,4.928-5.708H211.247c2.716,0,4.928,2.561,4.928,5.708V332.092C216.175,335.239,213.964,337.8,211.247,337.8ZM44.522,55.2c-2.6,0-4.713,2.448-4.713,5.458V332.093c0,3.01,2.114,5.458,4.713,5.458H211.247c2.6,0,4.712-2.448,4.712-5.458V60.66c0-3.009-2.114-5.458-4.712-5.458H44.522Z" transform="translate(27.933)" fill="#ebebeb"/>
        <path id="Path_246" data-name="Path 246" d="M438.015,337.8H261.12a5.491,5.491,0,0,1-5.228-5.708V60.66a5.491,5.491,0,0,1,5.228-5.708H438.015a5.49,5.49,0,0,1,5.229,5.708V332.092A5.491,5.491,0,0,1,438.015,337.8ZM261.12,55.2a5.249,5.249,0,0,0-5,5.458V332.093a5.249,5.249,0,0,0,5,5.458H438.015a5.249,5.249,0,0,0,5-5.458V60.66a5.25,5.25,0,0,0-5-5.458H261.12Z" fill="#ebebeb"/>
      </g>
      <rect id="Rectangle_43" data-name="Rectangle 43" width="367.347" height="0.25" transform="translate(71.063 382.398)" fill="#ebebeb"/>
      <g id="Group_56" data-name="Group 56">
        <path id="Path_247" data-name="Path 247" d="M119.331,314.75c-.845-9.658-10.7-13.273-22.387-12.251s-20.764,6.3-19.919,15.953Z" fill="#f0f0f0"/>
        <path id="Path_248" data-name="Path 248" d="M96.558,298.085c5.422-.474,7.153-5.054,6.678-10.476s-2.974-9.632-8.4-9.157-7.153,5.054-6.678,10.476S91.136,298.56,96.558,298.085Z" fill="#f0f0f0"/>
      </g>
      <g id="Group_59" data-name="Group 59">
        <g id="Group_57" data-name="Group 57">
          <path id="Path_249" data-name="Path 249" d="M340.1,108.971a5.434,5.434,0,1,1-5.887-4.941A5.433,5.433,0,0,1,340.1,108.971Z" fill="#f5f5f5"/>
          <path id="Path_250" data-name="Path 250" d="M370.173,106.34a5.435,5.435,0,1,1-5.888-4.941A5.433,5.433,0,0,1,370.173,106.34Z" fill="#f5f5f5"/>
          <path id="Path_251" data-name="Path 251" d="M400.246,103.709a5.435,5.435,0,1,1-5.888-4.94A5.435,5.435,0,0,1,400.246,103.709Z" fill="#f5f5f5"/>
          <path id="Path_252" data-name="Path 252" d="M342.782,139.624a5.435,5.435,0,1,1-5.888-4.939A5.435,5.435,0,0,1,342.782,139.624Z" fill="#f5f5f5"/>
          <path id="Path_253" data-name="Path 253" d="M372.855,136.992a5.435,5.435,0,1,1-5.888-4.94A5.435,5.435,0,0,1,372.855,136.992Z" fill="#f5f5f5"/>
          <path id="Path_254" data-name="Path 254" d="M402.928,134.361a5.435,5.435,0,1,1-5.888-4.941A5.433,5.433,0,0,1,402.928,134.361Z" fill="#f5f5f5"/>
          <path id="Path_255" data-name="Path 255" d="M345.464,170.276a5.434,5.434,0,1,1-5.887-4.94A5.435,5.435,0,0,1,345.464,170.276Z" fill="#f5f5f5"/>
          <path id="Path_256" data-name="Path 256" d="M375.537,167.645a5.435,5.435,0,1,1-5.888-4.939A5.435,5.435,0,0,1,375.537,167.645Z" fill="#f5f5f5"/>
          <path id="Path_257" data-name="Path 257" d="M405.609,165.014a5.435,5.435,0,1,1-5.888-4.94A5.433,5.433,0,0,1,405.609,165.014Z" fill="#f5f5f5"/>
        </g>
        <g id="Group_58" data-name="Group 58">
          <path id="Path_258" data-name="Path 258" d="M399.112,166.779l-61.786,5.406,54.782-66.567-56.13,4.911a1.192,1.192,0,0,1-1.291-1.084h0a1.192,1.192,0,0,1,1.084-1.291l61.786-5.406-54.782,66.567,56.13-4.911a1.192,1.192,0,0,1,1.291,1.083h0A1.193,1.193,0,0,1,399.112,166.779Z" fill="#e6e6e6"/>
        </g>
      </g>
      <g id="Group_73" data-name="Group 73">
        <path id="Path_259" data-name="Path 259" d="M400.059,285.606a1.565,1.565,0,0,0-1.353-1.067,10.754,10.754,0,0,1-7.123-3.153c-2.471-2.481-3.924-6.257-4.159-10.74a1.586,1.586,0,0,0-1.58-1.491h0a1.611,1.611,0,0,0-1.614,1.7c.285,5.258,2.063,9.755,5.085,12.79a14,14,0,0,0,8.876,4.063l.228.019A1.6,1.6,0,0,0,400.059,285.606Z" fill="#f0f0f0"/>
        <g id="Group_72" data-name="Group 72">
          <g id="Group_60" data-name="Group 60">
            <path id="Path_260" data-name="Path 260" d="M396.864,304.8c-13.254-1.16-22.811-10.193-25.836-24.289a1.611,1.611,0,0,1,1.286-1.941h0a1.589,1.589,0,0,1,1.832,1.216c2.71,12.677,11.218,20.8,23,21.826,12.917,1.13,26.79-7.368,29.275-28.792a1.608,1.608,0,0,1,1.728-1.433h0a1.6,1.6,0,0,1,1.454,1.761C427.218,293.347,413.937,306.294,396.864,304.8Z" fill="#f0f0f0"/>
          </g>
          <g id="Group_61" data-name="Group 61">
            <path id="Path_261" data-name="Path 261" d="M371.86,266.462h0a1.6,1.6,0,0,1-1.454-1.761c2.382-20.2,15.664-33.146,32.736-31.653,14.959,1.309,25.045,12.508,26.616,29.378a1.592,1.592,0,0,1-1.5,1.72h0a1.61,1.61,0,0,1-1.689-1.474c-1.442-15.2-10.418-25.274-23.7-26.436-12.917-1.13-26.79,7.367-29.275,28.792A1.606,1.606,0,0,1,371.86,266.462Z" fill="#f0f0f0"/>
          </g>
          <g id="Group_62" data-name="Group 62">
            <path id="Path_262" data-name="Path 262" d="M397.515,296.232a21.923,21.923,0,0,1-6.9-1.718,1.609,1.609,0,0,1-.768-2.243h0a1.581,1.581,0,0,1,2.021-.7,18.813,18.813,0,0,0,6.573,1.521c9.8.561,20.137-6.378,21.15-23.144.624-10.326-2.913-18.667-9.517-22.656a1.59,1.59,0,0,1-.606-2.065h0a1.61,1.61,0,0,1,2.271-.669c7.642,4.614,11.746,14.028,11.047,25.583-.977,16.167-11.064,26.919-24.529,26.148C398.012,296.271,397.762,296.253,397.515,296.232Z" fill="#f0f0f0"/>
          </g>
          <g id="Group_63" data-name="Group 63">
            <path id="Path_263" data-name="Path 263" d="M383.266,286.258a1.611,1.611,0,0,1-2.3-.53,32.29,32.29,0,0,1-3.75-18.018c.935-15.465,10.207-25.976,22.8-26.183a1.612,1.612,0,0,1,1.636,1.7v0a1.591,1.591,0,0,1-1.557,1.5c-9.337.184-18.718,7.242-19.681,23.172a29.06,29.06,0,0,0,3.345,16.255,1.584,1.584,0,0,1-.489,2.1Z" fill="#f0f0f0"/>
          </g>
          <g id="Group_64" data-name="Group 64">
            <path id="Path_264" data-name="Path 264" d="M405.13,284.95h0a1.6,1.6,0,0,1,.653-2.015c4.2-2.532,6.788-7.846,6.832-14.251.035-5.131-1.454-9.471-4.193-12.221a10.979,10.979,0,0,0-8.116-3.184c-4.93.013-8.922,2.714-11.134,7.467a1.588,1.588,0,0,1-1.989.817h0a1.61,1.61,0,0,1-.9-2.189c2.736-5.839,7.869-9.28,14.016-9.3A14.272,14.272,0,0,1,410.69,254.2c3.346,3.36,5.166,8.509,5.125,14.5-.051,7.559-3.235,13.895-8.421,17A1.6,1.6,0,0,1,405.13,284.95Z" fill="#f0f0f0"/>
          </g>
          <g id="Group_65" data-name="Group 65">
            <path id="Path_265" data-name="Path 265" d="M393.609,273.193a1.607,1.607,0,0,1-2.159-1.115q-.159-.65-.263-1.338c-.9-5.984,2.312-11.2,7.483-12.119a7.873,7.873,0,0,1,6.868,1.773,1.55,1.55,0,0,1-.124,2.414l-.1.071a1.586,1.586,0,0,1-1.97-.15,4.732,4.732,0,0,0-4.111-.958c-3.941.7-5.439,4.8-4.881,8.49.054.359.122.707.2,1.041a1.61,1.61,0,0,1-.947,1.891Z" fill="#f0f0f0"/>
          </g>
          <g id="Group_66" data-name="Group 66">
            <path id="Path_266" data-name="Path 266" d="M398.9,279.35h-.013a1.489,1.489,0,0,1-1.124-2.273l.136-.217a1.49,1.49,0,0,1,1.376-.69,6.162,6.162,0,0,0,1.5-.092c3.441-.616,5.02-3.82,4.993-7.076a1.615,1.615,0,0,1,1.359-1.636h0a1.591,1.591,0,0,1,1.844,1.506c.1,5.218-2.977,9.525-7.633,10.357A9.247,9.247,0,0,1,398.9,279.35Z" fill="#f0f0f0"/>
          </g>
          <g id="Group_67" data-name="Group 67">
            <path id="Path_267" data-name="Path 267" d="M399.608,273.442a3.872,3.872,0,0,1-3.435-2.936,1.428,1.428,0,0,1,1.512-1.784l.367.032a1.446,1.446,0,0,1,1.23.98.694.694,0,0,0,.6.519c.769.067.9-1.036.924-1.258a1.893,1.893,0,0,0-.215-1.132,1.784,1.784,0,0,1-.395-1.2h0a1.605,1.605,0,0,1,2.83-.891,4.789,4.789,0,0,1,.969,3.5C403.77,271.891,401.923,273.645,399.608,273.442Z" fill="#f0f0f0"/>
          </g>
          <g id="Group_68" data-name="Group 68">
            <path id="Path_268" data-name="Path 268" d="M369.534,237.653h0a1.6,1.6,0,0,1-1.455-1.734l1.213-13.866,13.866,1.213A1.6,1.6,0,0,1,384.613,225h0a1.6,1.6,0,0,1-1.734,1.455l-10.677-.934-.934,10.677A1.6,1.6,0,0,1,369.534,237.653Z" fill="#f0f0f0"/>
          </g>
          <g id="Group_69" data-name="Group 69">
            <path id="Path_269" data-name="Path 269" d="M435.462,243.421h0a1.6,1.6,0,0,1-1.455-1.734l.934-10.677-10.677-.934a1.6,1.6,0,0,1-1.455-1.734h0a1.6,1.6,0,0,1,1.734-1.455l13.866,1.213L437.2,241.966A1.6,1.6,0,0,1,435.462,243.421Z" fill="#f0f0f0"/>
          </g>
          <g id="Group_70" data-name="Group 70">
            <path id="Path_270" data-name="Path 270" d="M430.547,317.97l-13.866-1.213a1.6,1.6,0,0,1-1.455-1.734h0a1.6,1.6,0,0,1,1.734-1.455l10.677.934.934-10.677a1.6,1.6,0,0,1,1.734-1.455h0a1.6,1.6,0,0,1,1.455,1.734Z" fill="#f0f0f0"/>
          </g>
          <g id="Group_71" data-name="Group 71">
            <path id="Path_271" data-name="Path 271" d="M375.3,313.136l-13.866-1.213,1.213-13.866a1.6,1.6,0,0,1,1.734-1.455h0a1.6,1.6,0,0,1,1.455,1.734l-.934,10.677,10.677.934a1.6,1.6,0,0,1,1.455,1.734h0A1.6,1.6,0,0,1,375.3,313.136Z" fill="#f0f0f0"/>
          </g>
        </g>
      </g>
      <g id="Group_74" data-name="Group 74">
        <path id="Path_272" data-name="Path 272" d="M74.73,283.126h0a.984.984,0,0,1-1.066-.895l-.746-8.525,8.525-.746a.984.984,0,0,1,1.066.895h0a.984.984,0,0,1-.895,1.066l-6.565.574.574,6.565A.981.981,0,0,1,74.73,283.126Z" fill="#e0e0e0"/>
      </g>
      <g id="Group_75" data-name="Group 75">
        <path id="Path_273" data-name="Path 273" d="M115.266,279.58h0a.984.984,0,0,1-1.066-.895l-.574-6.565-6.565.574a.984.984,0,0,1-1.066-.895h0a.984.984,0,0,1,.895-1.066l8.525-.746.746,8.525A.985.985,0,0,1,115.266,279.58Z" fill="#e0e0e0"/>
      </g>
      <g id="Group_76" data-name="Group 76">
        <path id="Path_274" data-name="Path 274" d="M119.466,316.29l-8.525.746a.984.984,0,0,1-1.066-.895h0a.984.984,0,0,1,.895-1.066l6.565-.574-.574-6.565a.984.984,0,0,1,.895-1.066h0a.984.984,0,0,1,1.066.895Z" fill="#e0e0e0"/>
      </g>
      <g id="Group_77" data-name="Group 77">
        <path id="Path_275" data-name="Path 275" d="M85.494,319.262l-8.525.746-.746-8.526a.984.984,0,0,1,.895-1.066h0a.984.984,0,0,1,1.066.895l.574,6.565,6.565-.574a.984.984,0,0,1,1.066.895h0A.985.985,0,0,1,85.494,319.262Z" fill="#e0e0e0"/>
      </g>
      <path id="Path_276" data-name="Path 276" d="M114.583,140.948,81.952,143.8l-.668-7.636a14.421,14.421,0,0,1,28.732-2.514l.388,4.437,4.708-.412-.388-4.437a19.147,19.147,0,0,0-38.148,3.338l.672,7.68a7.659,7.659,0,0,0-6.156,8.181l2.331,26.643a7.658,7.658,0,0,0,8.3,6.961l36.53-3.2a7.657,7.657,0,0,0,6.961-8.295l-2.331-26.643A7.658,7.658,0,0,0,114.583,140.948Zm-13.861,20.53.8,9.174a2.737,2.737,0,1,1-5.453.477l-.8-9.174a4.608,4.608,0,1,1,5.453-.477Z" fill="#ebebeb"/>
      <g id="Group_78" data-name="Group 78">
        <path id="Path_277" data-name="Path 277" d="M170.445,156.393l-3.3-5.378a17.206,17.206,0,0,1-5.036,0l-3.3,5.378-.633-.168a24.888,24.888,0,0,1-6.1-2.53l-.567-.329,1.4-5.838a.88.88,0,0,1,1.061-.651h0a.879.879,0,0,1,.65,1.061l-1.092,4.554A23.05,23.05,0,0,0,158,154.348l3.222-5.254.583.1a17.509,17.509,0,0,0,5.642,0l.583-.1,3.222,5.254a23.111,23.111,0,0,0,4.467-1.856l-1.434-5.985.48-.344a17.471,17.471,0,0,0,3.475-3.308.885.885,0,0,1,1.213-.183h0a.875.875,0,0,1,.189,1.247,19.184,19.184,0,0,1-3.372,3.318l1.469,6.129-.566.329a24.887,24.887,0,0,1-6.1,2.53Zm-20.22-11.741q-.415-.476-.8-.978l-6.13,1.468-.329-.566a24.887,24.887,0,0,1-2.53-6.1l-.168-.633,5.378-3.3a17.321,17.321,0,0,1,0-5.036l-5.378-3.3.168-.633a24.888,24.888,0,0,1,2.53-6.1l.329-.566,6.129,1.468a19.222,19.222,0,0,1,3.562-3.562l-1.112-4.638a.879.879,0,0,1,.649-1.059h0a.879.879,0,0,1,1.059.649l1.384,5.778-.484.348a17.534,17.534,0,0,0-3.988,3.989l-.345.479-5.985-1.434a23.171,23.171,0,0,0-1.855,4.467l5.252,3.221-.1.583a16.041,16.041,0,0,0,0,5.642l.1.582-5.253,3.223a23.082,23.082,0,0,0,1.855,4.467l5.985-1.434.345.479c.325.452.674.891,1.042,1.312a.864.864,0,0,1-.037,1.2l-.032.031A.856.856,0,0,1,150.225,144.652Zm35.737.491-2.26-.541a.88.88,0,0,1-.651-1.061h0a.881.881,0,0,1,1.061-.651l.976.234a23.172,23.172,0,0,0,1.855-4.467l-5.253-3.223.1-.582a16.041,16.041,0,0,0,0-5.642l-.1-.583,5.252-3.221a23.082,23.082,0,0,0-1.855-4.467l-5.985,1.434-.345-.479a17.533,17.533,0,0,0-3.988-3.989l-.484-.348,1.434-5.985a23.175,23.175,0,0,0-4.467-1.856l-3.222,5.253-.583-.094a17.635,17.635,0,0,0-5.644,0l-.582.094L158,109.717c-.2.059-.4.122-.6.187a.872.872,0,0,1-1.087-.534h0a.878.878,0,0,1,.539-1.138c.439-.144.882-.275,1.323-.392l.634-.169,3.3,5.379a17.062,17.062,0,0,1,5.035,0l3.3-5.379.634.168a24.966,24.966,0,0,1,6.1,2.53l.566.329-1.469,6.13a19.222,19.222,0,0,1,3.562,3.562l6.129-1.468.329.566a24.887,24.887,0,0,1,2.53,6.1l.168.633-5.378,3.3a17.321,17.321,0,0,1,0,5.036l5.378,3.3-.168.633a24.888,24.888,0,0,1-2.53,6.1ZM164.381,140.6a8.572,8.572,0,0,1-.743-17.083.888.888,0,0,1,.99.879h0a.871.871,0,0,1-.772.867,6.81,6.81,0,1,0,6.352,2.858.865.865,0,0,1,.146-1.143h0a.887.887,0,0,1,1.312.157,8.573,8.573,0,0,1-7.285,13.465Z" fill="#f0f0f0"/>
      </g>
      <g id="Group_79" data-name="Group 79">
        <path id="Path_278" data-name="Path 278" d="M108.314,229.592l-2.131-3.474a11.083,11.083,0,0,1-3.253,0l-2.131,3.474-.409-.109a16.035,16.035,0,0,1-3.938-1.635l-.366-.213.9-3.772a.568.568,0,0,1,.685-.42h0a.568.568,0,0,1,.42.685l-.705,2.942a14.916,14.916,0,0,0,2.886,1.2l2.081-3.394.377.062a11.314,11.314,0,0,0,3.645,0l.377-.062,2.082,3.394a14.916,14.916,0,0,0,2.886-1.2L110.8,223.2l.31-.223a11.289,11.289,0,0,0,2.245-2.137.573.573,0,0,1,.784-.118h0a.567.567,0,0,1,.122.806,12.421,12.421,0,0,1-2.179,2.144l.949,3.959-.366.213a16.113,16.113,0,0,1-3.938,1.635Zm-13.063-7.584c-.179-.205-.352-.415-.518-.632l-3.96.949-.212-.366a16.071,16.071,0,0,1-1.634-3.938l-.109-.409,3.474-2.131a11.182,11.182,0,0,1,0-3.254L88.818,210.1l.109-.409a16.087,16.087,0,0,1,1.634-3.938l.212-.366,3.96.949a12.379,12.379,0,0,1,2.3-2.3l-.718-3a.568.568,0,0,1,.419-.684h0a.567.567,0,0,1,.684.42l.894,3.733-.313.225a11.31,11.31,0,0,0-2.576,2.577l-.223.31-3.867-.926a14.975,14.975,0,0,0-1.2,2.886l3.393,2.081-.061.377a11.232,11.232,0,0,0-.161,1.823,11.346,11.346,0,0,0,.161,1.823l.062.376-3.393,2.082a14.975,14.975,0,0,0,1.2,2.886L95.2,220.1l.223.31c.21.292.435.576.673.848a.558.558,0,0,1-.024.772l-.021.02A.56.56,0,0,1,95.251,222.008Zm23.087.316-1.46-.349a.569.569,0,0,1-.421-.685h0a.568.568,0,0,1,.685-.42l.631.151a14.975,14.975,0,0,0,1.2-2.886l-3.393-2.082.062-.376a10.4,10.4,0,0,0,0-3.646l-.061-.377,3.393-2.081a14.975,14.975,0,0,0-1.2-2.886l-3.867.926-.223-.31a11.33,11.33,0,0,0-2.576-2.577l-.313-.225.927-3.867a14.979,14.979,0,0,0-2.886-1.2l-2.081,3.393-.376-.061a11.377,11.377,0,0,0-3.646,0l-.376.061-2.081-3.393c-.129.038-.259.079-.387.121a.564.564,0,0,1-.7-.345h0a.567.567,0,0,1,.348-.735c.284-.093.57-.178.854-.253l.41-.109,2.131,3.475a11.015,11.015,0,0,1,3.253,0l2.131-3.475.409.109a16.181,16.181,0,0,1,3.938,1.634l.366.213-.949,3.96a12.41,12.41,0,0,1,2.3,2.3l3.96-.949.212.366a16.071,16.071,0,0,1,1.634,3.938l.109.409-3.474,2.131a11.182,11.182,0,0,1,0,3.254l3.474,2.131-.109.409a16.071,16.071,0,0,1-1.634,3.938ZM104.4,219.389a5.538,5.538,0,0,1-.48-11.037.574.574,0,0,1,.639.568h0a.562.562,0,0,1-.5.56,4.4,4.4,0,1,0,4.1,1.847.56.56,0,0,1,.094-.739h0a.573.573,0,0,1,.848.1,5.538,5.538,0,0,1-4.706,8.7Z" fill="#e6e6e6"/>
      </g>
    </g>
    <g id="Shadow">
      <ellipse id="_x3C_Path_x3E__359_" cx="193.889" cy="11.323" rx="193.889" ry="11.323" transform="translate(56.111 404.37)" fill="#f5f5f5"/>
    </g>
    <g id="Device">
      <g id="Group_89" data-name="Group 89">
        <path id="Path_279" data-name="Path 279" d="M363.45,145.827H330.889L307.858,409.076h32.561a18.717,18.717,0,0,0,18.262-16.793L378.774,162.62A15.158,15.158,0,0,0,363.45,145.827Z" fill="#407bff"/>
        <path id="Path_280" data-name="Path 280" d="M356.806,145.827h-110.2a18.717,18.717,0,0,0-18.262,16.793L208.252,392.283a15.158,15.158,0,0,0,15.324,16.793h110.2a18.717,18.717,0,0,0,18.262-16.793L372.13,162.62A15.158,15.158,0,0,0,356.806,145.827Z" fill="#407bff"/>
        <path id="Path_281" data-name="Path 281" d="M356.806,145.827h-110.2a18.717,18.717,0,0,0-18.262,16.793L208.252,392.283a15.158,15.158,0,0,0,15.324,16.793h110.2a18.717,18.717,0,0,0,18.262-16.793L372.13,162.62A15.158,15.158,0,0,0,356.806,145.827Z" fill="#fff" opacity="0.3"/>
        <path id="Path_282" data-name="Path 282" d="M356.335,151.207H327.281a4.326,4.326,0,0,0-3.958,2.767h0A16,16,0,0,1,308.69,164.2H291.509a12.865,12.865,0,0,1-12.845-10.227h0a3.478,3.478,0,0,0-3.474-2.766H246.136a12.705,12.705,0,0,0-12.411,11.412L213.632,392.283a10.29,10.29,0,0,0,10.414,11.412h110.2a12.705,12.705,0,0,0,12.411-11.412L366.749,162.62A10.291,10.291,0,0,0,356.335,151.207Z" fill="#fff" opacity="0.4"/>
        <path id="Path_283" data-name="Path 283" d="M328.883,275.958H251.759a3.733,3.733,0,0,1-3.778-4.14l.386-4.413a4.609,4.609,0,0,1,4.5-4.14h77.124a3.733,3.733,0,0,1,3.778,4.14l-.386,4.413A4.61,4.61,0,0,1,328.883,275.958Z" fill="#fff"/>
        <path id="Path_284" data-name="Path 284" d="M327.217,295H250.093a3.733,3.733,0,0,1-3.778-4.14l.386-4.413a4.609,4.609,0,0,1,4.5-4.14h77.124a3.733,3.733,0,0,1,3.778,4.14l-.386,4.413A4.61,4.61,0,0,1,327.217,295Z" fill="#fff"/>
        <path id="Path_285" data-name="Path 285" d="M305.45,155.509a5.111,5.111,0,0,1-4.993,4.591,4.139,4.139,0,0,1-4.189-4.591,5.111,5.111,0,0,1,4.993-4.591A4.139,4.139,0,0,1,305.45,155.509Z" opacity="0.1"/>
        <path id="Path_286" data-name="Path 286" d="M303.367,155.509a2.792,2.792,0,0,1-2.728,2.508,2.262,2.262,0,0,1-2.289-2.508A2.792,2.792,0,0,1,301.078,153,2.261,2.261,0,0,1,303.367,155.509Z" opacity="0.1"/>
        <g id="Group_82" data-name="Group 82">
          <g id="Group_80" data-name="Group 80" opacity="0.8">
            <path id="Path_287" data-name="Path 287" d="M342.769,163.167h0a1.213,1.213,0,0,1-1.228-1.345l.215-2.459a1.5,1.5,0,0,1,1.463-1.345h0a1.213,1.213,0,0,1,1.228,1.345l-.215,2.459A1.5,1.5,0,0,1,342.769,163.167Z" fill="#fff"/>
            <path id="Path_288" data-name="Path 288" d="M353.531,163.167h0a1.213,1.213,0,0,1-1.228-1.345l.505-5.771a1.5,1.5,0,0,1,1.463-1.345h0a1.213,1.213,0,0,1,1.228,1.345l-.505,5.771A1.5,1.5,0,0,1,353.531,163.167Z" fill="#fff"/>
            <path id="Path_289" data-name="Path 289" d="M348.15,163.167h0a1.213,1.213,0,0,1-1.228-1.345l.36-4.115a1.5,1.5,0,0,1,1.463-1.345h0a1.213,1.213,0,0,1,1.228,1.345l-.36,4.115A1.5,1.5,0,0,1,348.15,163.167Z" fill="#fff"/>
          </g>
          <g id="Group_81" data-name="Group 81" opacity="0.8">
            <path id="Path_290" data-name="Path 290" d="M250.635,163.167H243.88a.687.687,0,0,1-.7-.762l.317-3.627a.848.848,0,0,1,.828-.762h6.755a.687.687,0,0,1,.7.762l-.317,3.627A.848.848,0,0,1,250.635,163.167Z" fill="#fff"/>
            <path id="Path_291" data-name="Path 291" d="M253.767,162.183h0a.687.687,0,0,1-.7-.762l.145-1.659a.848.848,0,0,1,.828-.762h0a.687.687,0,0,1,.7.762l-.145,1.659A.847.847,0,0,1,253.767,162.183Z" fill="#fff"/>
          </g>
        </g>
        <ellipse id="Ellipse_1" data-name="Ellipse 1" cx="33.728" cy="30.904" rx="33.728" ry="30.904" transform="matrix(0.722, -0.692, 0.692, 0.722, 249.082, 225.624)" fill="#fff"/>
        <g id="Group_83" data-name="Group 83">
          <path id="Path_292" data-name="Path 292" d="M294.921,223.379c-8.485,0-15.647,3.228-16.26,10.243l-.681,7.785h30.729l.681-7.785C310,226.607,303.407,223.379,294.921,223.379Z" fill="#407bff"/>
          <path id="Path_293" data-name="Path 293" d="M295.2,220.173c3.938,0,5.754-3.192,6.1-7.13s-.913-7.13-4.851-7.13-5.754,3.192-6.1,7.13S291.264,220.173,295.2,220.173Z" fill="#407bff"/>
        </g>
        <g id="Group_84" data-name="Group 84">
          <path id="Path_294" data-name="Path 294" d="M325.363,269.384c-2.1,0-3.865.8-4.016,2.53l-.168,1.923h7.59l.168-1.923C329.088,270.181,327.459,269.384,325.363,269.384Z" fill="#407bff"/>
          <path id="Path_295" data-name="Path 295" d="M325.432,268.592c.973,0,1.421-.789,1.506-1.761s-.225-1.761-1.2-1.761-1.421.789-1.506,1.761S324.46,268.592,325.432,268.592Z" fill="#407bff"/>
        </g>
        <path id="Path_296" data-name="Path 296" d="M301.994,314.038H271.985a5.722,5.722,0,0,1-5.791-6.347h0a7.067,7.067,0,0,1,6.9-6.347h30.009a5.723,5.723,0,0,1,5.791,6.347h0A7.066,7.066,0,0,1,301.994,314.038Z" fill="#407bff"/>
        <path id="Path_297" data-name="Path 297" d="M298.374,384.818H266.257a6.048,6.048,0,0,1-6.12-6.707l2.049-23.425a7.466,7.466,0,0,1,7.293-6.707H301.6a6.048,6.048,0,0,1,6.12,6.707l-2.049,23.425A7.466,7.466,0,0,1,298.374,384.818Z" fill="#407bff"/>
        <g id="Group_85" data-name="Group 85" opacity="0.6">
          <path id="Path_298" data-name="Path 298" d="M288.469,360.6a3.639,3.639,0,0,0-3.683-4.036A4.493,4.493,0,0,0,280.4,360.6a3.66,3.66,0,0,0,1.356,3.23l-.706,8.066a2.161,2.161,0,0,0,2.187,2.4,2.669,2.669,0,0,0,2.607-2.4l.706-8.066A4.45,4.45,0,0,0,288.469,360.6Z" fill="#fff"/>
        </g>
        <g id="Group_86" data-name="Group 86">
          <path id="Path_299" data-name="Path 299" d="M301.881,352.855h-4.139l1.014-11.59a11.4,11.4,0,0,0-11.526-12.631,14.078,14.078,0,0,0-13.736,12.631l-1.014,11.59h-4.139l1.014-11.59a18.692,18.692,0,0,1,18.237-16.77,15.138,15.138,0,0,1,15.3,16.77Z" fill="#407bff"/>
        </g>
        <path id="Path_300" data-name="Path 300" d="M325.871,287.134l.1-1.112a1.86,1.86,0,0,0-1.881-2.061,2.3,2.3,0,0,0-2.241,2.061l-.1,1.112a.914.914,0,0,0-.893.822l-.259,2.956a.741.741,0,0,0,.75.822h4.12a.915.915,0,0,0,.894-.822l.259-2.956A.74.74,0,0,0,325.871,287.134Zm-1.828-2.665a1.4,1.4,0,0,1,1.417,1.552l-.1,1.112h-3.105l.1-1.112A1.73,1.73,0,0,1,324.043,284.469Z" fill="#407bff"/>
        <g id="Group_87" data-name="Group 87">
          <path id="Path_301" data-name="Path 301" d="M263.847,288.318l-1.438-.3a.271.271,0,0,1-.187-.382l.6-1.416a.279.279,0,0,0-.474-.288l-1.087,1.12a.293.293,0,0,1-.441,0l-.891-1.12a.311.311,0,0,0-.525.288l.351,1.416a.322.322,0,0,1-.254.382l-1.49.3a.3.3,0,0,0-.05.577l1.438.3a.271.271,0,0,1,.187.382l-.6,1.416a.279.279,0,0,0,.474.288l1.087-1.12a.293.293,0,0,1,.441,0l.891,1.12a.311.311,0,0,0,.525-.288l-.351-1.416a.322.322,0,0,1,.254-.382l1.49-.3C264.117,288.831,264.156,288.381,263.847,288.318Z" fill="#263238"/>
          <path id="Path_302" data-name="Path 302" d="M273.31,288.318l-1.438-.3a.271.271,0,0,1-.187-.382l.6-1.416a.279.279,0,0,0-.474-.288l-1.087,1.12a.293.293,0,0,1-.441,0l-.891-1.12a.311.311,0,0,0-.525.288l.351,1.416a.323.323,0,0,1-.254.382l-1.49.3c-.32.064-.359.513-.051.577l1.438.3a.271.271,0,0,1,.187.382l-.6,1.416a.279.279,0,0,0,.474.288l1.087-1.12a.293.293,0,0,1,.441,0l.891,1.12a.311.311,0,0,0,.525-.288l-.351-1.416a.323.323,0,0,1,.254-.382l1.49-.3C273.58,288.831,273.619,288.381,273.31,288.318Z" fill="#263238"/>
          <path id="Path_303" data-name="Path 303" d="M282.773,288.318l-1.438-.3a.271.271,0,0,1-.187-.382l.6-1.416a.279.279,0,0,0-.474-.288l-1.087,1.12a.293.293,0,0,1-.441,0l-.891-1.12a.311.311,0,0,0-.525.288l.351,1.416a.322.322,0,0,1-.254.382l-1.49.3c-.32.064-.359.513-.051.577l1.438.3a.271.271,0,0,1,.187.382l-.6,1.416a.279.279,0,0,0,.474.288l1.087-1.12a.293.293,0,0,1,.441,0l.891,1.12a.311.311,0,0,0,.525-.288l-.351-1.416a.322.322,0,0,1,.254-.382l1.49-.3C283.043,288.831,283.082,288.381,282.773,288.318Z" fill="#263238"/>
          <path id="Path_304" data-name="Path 304" d="M292.237,288.318l-1.438-.3a.271.271,0,0,1-.187-.382l.6-1.416a.279.279,0,0,0-.474-.288l-1.087,1.12a.293.293,0,0,1-.441,0l-.891-1.12a.311.311,0,0,0-.525.288l.351,1.416a.322.322,0,0,1-.254.382l-1.49.3a.3.3,0,0,0-.05.577l1.438.3a.271.271,0,0,1,.187.382l-.6,1.416a.279.279,0,0,0,.474.288l1.087-1.12a.293.293,0,0,1,.441,0l.891,1.12a.311.311,0,0,0,.525-.288l-.351-1.416a.322.322,0,0,1,.254-.382l1.49-.3C292.506,288.831,292.546,288.381,292.237,288.318Z" fill="#263238"/>
          <path id="Path_305" data-name="Path 305" d="M301.7,288.318l-1.438-.3a.271.271,0,0,1-.187-.382l.6-1.416a.279.279,0,0,0-.474-.288l-1.087,1.12a.293.293,0,0,1-.441,0l-.891-1.12a.311.311,0,0,0-.525.288l.351,1.416a.322.322,0,0,1-.254.382l-1.49.3c-.32.064-.359.513-.051.577l1.438.3a.271.271,0,0,1,.187.382l-.6,1.416a.279.279,0,0,0,.474.288l1.087-1.12a.293.293,0,0,1,.441,0l.891,1.12a.311.311,0,0,0,.525-.288l-.351-1.416a.323.323,0,0,1,.254-.382l1.49-.3C301.969,288.831,302.009,288.381,301.7,288.318Z" fill="#263238"/>
          <path id="Path_306" data-name="Path 306" d="M311.163,288.318l-1.438-.3a.271.271,0,0,1-.187-.382l.6-1.416a.279.279,0,0,0-.474-.288l-1.087,1.12a.293.293,0,0,1-.441,0l-.891-1.12a.311.311,0,0,0-.525.288l.351,1.416a.323.323,0,0,1-.254.382l-1.49.3c-.32.064-.359.513-.051.577l1.438.3a.271.271,0,0,1,.187.382l-.6,1.416a.279.279,0,0,0,.474.288l1.087-1.12a.293.293,0,0,1,.441,0l.891,1.12a.311.311,0,0,0,.525-.288l-.351-1.416a.322.322,0,0,1,.254-.382l1.49-.3C311.432,288.831,311.472,288.381,311.163,288.318Z" fill="#263238"/>
        </g>
        <g id="Group_88" data-name="Group 88">
          <path id="Path_307" data-name="Path 307" d="M288.353,267.612H270.585a2.226,2.226,0,0,0-2.174,2,1.8,1.8,0,0,0,1.824,2H288a2.226,2.226,0,0,0,2.174-2A1.8,1.8,0,0,0,288.353,267.612Z" fill="#263238"/>
          <path id="Path_308" data-name="Path 308" d="M306.39,267.612H296.08a2.226,2.226,0,0,0-2.174,2,1.8,1.8,0,0,0,1.824,2h10.31a2.226,2.226,0,0,0,2.174-2A1.8,1.8,0,0,0,306.39,267.612Z" fill="#263238"/>
        </g>
        <path id="Path_309" data-name="Path 309" d="M320,358.264a45.274,45.274,0,0,0-16.592,11.014,19.7,19.7,0,0,0-9.725-4.036l-.471-.075-.206,2.359.263.1a18.375,18.375,0,0,1,9.333,7.685l.336.555.372-.6a43.4,43.4,0,0,1,16.916-15.56l.23-.117.137-1.568Z" fill="#263238"/>
      </g>
    </g>
    <g id="Policy">
      <path id="Path_310" data-name="Path 310" d="M230.645,161.374a17.808,17.808,0,0,0-2.3,7.245L213.452,338.84h46.077l9.258-35.493-3.047-35.493L275,232.361l-3.047-35.493,9.258-35.493H230.645Z" opacity="0.2"/>
      <g id="Group_95" data-name="Group 95">
        <g id="Group_90" data-name="Group 90">
          <path id="Path_311" data-name="Path 311" d="M267.951,186.868l9.257-35.494H160.684l-9.258,35.494,3.048,35.493-9.258,35.493,3.047,35.494-9.258,35.493H255.529l9.258-35.493-3.047-35.494L271,222.361Z" fill="#407bff"/>
          <path id="Path_312" data-name="Path 312" d="M267.951,186.868l9.257-35.494H160.684l-9.258,35.494,3.048,35.493-9.258,35.493,3.047,35.494-9.258,35.493H255.529l9.258-35.493-3.047-35.494L271,222.361Z" fill="#fff" opacity="0.7"/>
          <path id="Path_313" data-name="Path 313" d="M267.95,186.868H151.426l9.258-35.494H277.208Z" fill="#fff" opacity="0.5"/>
          <path id="Path_314" data-name="Path 314" d="M261.74,257.854H145.216l9.258-35.493H271Z" fill="#fff" opacity="0.5"/>
          <path id="Path_315" data-name="Path 315" d="M255.529,328.841H139.005l9.258-35.493H264.787Z" fill="#fff" opacity="0.5"/>
        </g>
        <path id="Path_316" data-name="Path 316" d="M252.358,201.7a12.652,12.652,0,0,1-3.68.5,10.256,10.256,0,0,1-4.893-1.02,1.749,1.749,0,0,0-.9-.253h0a1.761,1.761,0,0,0-.841.226c-.02.011-.042.015-.061.027h0c-.011.007-.025.012-.036.019a6.144,6.144,0,0,1-1.421.574,13.012,13.012,0,0,1-3.435.428c-.349,0-.692-.012-1.024-.034a11.752,11.752,0,0,1-2.656-.466,1.713,1.713,0,0,0-.392-.074,1.6,1.6,0,0,0-1.722,1.6h0v1.084H186a6.347,6.347,0,0,0-6.347,6.347v6.4A6.347,6.347,0,0,0,186,223.4h51.527c.114,0,.224-.011.337-.017.556.46,1.135.919,1.748,1.384.734.556,1.507,1.12,2.317,1.708a1.628,1.628,0,0,0,1.9,0c6.479-4.7,10.639-7.94,10.639-16.845v-6.4A1.613,1.613,0,0,0,252.358,201.7Z" opacity="0.2"/>
        <g id="Group_93" data-name="Group 93">
          <path id="Path_317" data-name="Path 317" d="M236.546,219.875H185.019a6.347,6.347,0,0,1-6.347-6.347v-6.4a6.347,6.347,0,0,1,6.347-6.347h51.527a6.347,6.347,0,0,1,6.347,6.347v6.4A6.347,6.347,0,0,1,236.546,219.875Z" fill="#407bff"/>
          <g id="Group_92" data-name="Group 92">
            <g id="Group_91" data-name="Group 91">
              <path id="Path_318" data-name="Path 318" d="M247.694,198.677a10.259,10.259,0,0,1-4.893-1.02,1.736,1.736,0,0,0-1.8,0,10.254,10.254,0,0,1-4.893,1.02,12.684,12.684,0,0,1-3.68-.5,1.611,1.611,0,0,0-2.115,1.525v6.4c0,8.9,4.16,12.146,10.639,16.845a1.628,1.628,0,0,0,1.9,0c6.479-4.7,10.639-7.94,10.639-16.845v-6.4a1.611,1.611,0,0,0-2.115-1.525A12.684,12.684,0,0,1,247.694,198.677Z" fill="#407bff"/>
              <path id="Path_319" data-name="Path 319" d="M247.694,198.677a10.259,10.259,0,0,1-4.893-1.02,1.736,1.736,0,0,0-1.8,0,10.254,10.254,0,0,1-4.893,1.02,12.684,12.684,0,0,1-3.68-.5,1.611,1.611,0,0,0-2.115,1.525v6.4c0,8.9,4.16,12.146,10.639,16.845a1.628,1.628,0,0,0,1.9,0c6.479-4.7,10.639-7.94,10.639-16.845v-6.4a1.611,1.611,0,0,0-2.115-1.525A12.684,12.684,0,0,1,247.694,198.677Z" fill="#fff" opacity="0.3"/>
              <path id="Path_320" data-name="Path 320" d="M241,197.657a10.254,10.254,0,0,1-4.893,1.02,12.684,12.684,0,0,1-3.68-.5,1.611,1.611,0,0,0-2.115,1.524v6.4c0,8.9,4.16,12.146,10.639,16.845a1.621,1.621,0,0,0,.951.307V197.4A1.749,1.749,0,0,0,241,197.657Z" fill="#fff" opacity="0.2"/>
            </g>
            <path id="Path_321" data-name="Path 321" d="M251.186,204.357a25.974,25.974,0,0,0-10.121,7.133,13.976,13.976,0,0,0-6.527-2.614l-.309-.048v1.528l.176.064a13.468,13.468,0,0,1,6.48,4.977l.249.359.207-.385a24.741,24.741,0,0,1,10.074-10.077l.143-.076V204.2Z" fill="#263238"/>
          </g>
        </g>
        <g id="Group_94" data-name="Group 94">
          <path id="Path_322" data-name="Path 322" d="M275.151,161.355H270.73a4,4,0,0,1-4.051-4.439l.387-4.421a4.942,4.942,0,0,1,4.828-4.439h4.421a4,4,0,0,1,4.051,4.439l-.387,4.421A4.942,4.942,0,0,1,275.151,161.355Z" fill="#407bff"/>
          <path id="Path_323" data-name="Path 323" d="M276.988,152.486l-.959-1.052-2.415,2.22-2.026-2.22-1.144,1.052,2.026,2.22-2.414,2.22.96,1.052,2.414-2.22,2.026,2.22,1.144-1.052-2.026-2.22Z" fill="#fff"/>
        </g>
      </g>
    </g>
    <g id="Character">
      <g id="Group_99" data-name="Group 99">
        <g id="Group_96" data-name="Group 96">
          <path id="Path_324" data-name="Path 324" d="M176.372,199.494c2.563,2.787,5.012,5.674,7.43,8.588s4.782,5.874,7.114,8.863c.1.13.061.077.085.116.011.017.013.045.027.059s.04.077.071.1a1.307,1.307,0,0,0,.18.2,1.15,1.15,0,0,0,.552.264,1.326,1.326,0,0,0,.335.02,1.139,1.139,0,0,0,.182-.013.583.583,0,0,0,.092-.021c.051-.022.019.023.157-.059l2.505-1.358c3.36-1.779,6.747-3.518,10.25-5.079l2.928,3.626c-2.822,2.6-5.761,5.845-8.727,8.225l-2.24,1.761c-.057.052-.3.21-.449.311-.173.111-.342.231-.525.329a9.937,9.937,0,0,1-3.537,1.225,10.386,10.386,0,0,1-5.016-.5,9.9,9.9,0,0,1-2.3-1.171,10.5,10.5,0,0,1-1.029-.792c-.167-.139-.316-.294-.472-.445l-.4-.4c-2.646-2.714-5.263-5.454-7.821-8.246s-5.09-5.6-7.506-8.521Z" fill="#b55b52"/>
          <path id="Path_325" data-name="Path 325" d="M203.99,213.382l2.331-7.487,6.136,3.058s-.894,5.463-5.361,6.41Z" fill="#b55b52"/>
          <path id="Path_326" data-name="Path 326" d="M208.783,203.818l5.534,1.524-1.859,3.61-6.136-3.058Z" fill="#b55b52"/>
        </g>
        <g id="Group_97" data-name="Group 97">
          <path id="Path_327" data-name="Path 327" d="M144.094,201.534c-.668,3.181-1.484,6.326-2.339,9.462s-1.78,6.255-2.746,9.364l-.36,1.166-.18.583a1.924,1.924,0,0,1-.1.244,3.057,3.057,0,0,0-.189.951,3.5,3.5,0,0,0,.577,2.051,5.811,5.811,0,0,0,.65.758l.83.9,1.637,1.833c1.078,1.237,2.152,2.478,3.172,3.783l-3.485,4.034c-1.439-.819-2.823-1.7-4.2-2.589l-2.051-1.353-1.014-.691a12.988,12.988,0,0,1-1.174-.858,11.6,11.6,0,0,1-3.844-6.446,12.32,12.32,0,0,1-.183-3.9c.039-.314.1-.68.146-.949l.106-.6.212-1.2c.561-3.207,1.159-6.4,1.834-9.585s1.383-6.351,2.241-9.486Z" fill="#b55b52"/>
          <path id="Path_328" data-name="Path 328" d="M141.625,232.346l4.126-2.11,1.82,7.013s-3.311,1.269-5.874-.361Z" fill="#b55b52"/>
          <path id="Path_329" data-name="Path 329" d="M151.452,227.993l.187,6.433-4.607,3.013-1.6-7.067Z" fill="#b55b52"/>
        </g>
        <path id="Path_330" data-name="Path 330" d="M164.942,168.469c.1.5.445.844.769.778s.505-.521.4-1.017-.445-.844-.769-.778S164.842,167.973,164.942,168.469Z" fill="#263238"/>
        <path id="Path_331" data-name="Path 331" d="M165.342,169.322a18.094,18.094,0,0,0,3.229,3.757,2.915,2.915,0,0,1-2.277.926Z" fill="#a02724"/>
        <path id="Path_332" data-name="Path 332" d="M162.568,166.085a.3.3,0,0,1-.218-.5,2.948,2.948,0,0,1,2.527-.983.3.3,0,0,1-.1.586h0a2.356,2.356,0,0,0-1.992.8A.3.3,0,0,1,162.568,166.085Z" fill="#263238"/>
        <path id="Path_333" data-name="Path 333" d="M150.521,175.44c1.1,4.587,2.2,12.992-1.733,16.052,0,0,1.538,4.653,11.995,4.653,11.5,0,5.495-3,5.495-3-6.275-1.221-6.114-6.672-5.021-10.236Z" fill="#b55b52"/>
        <path id="Path_334" data-name="Path 334" d="M147.563,192.343c-.685-1.275-1.44-2.733.121-3.19,1.717-.5,12.748-1.435,15.988-.491-1,1.771.69,3.948.69,3.948Z" fill="#263238"/>
        <path id="Path_335" data-name="Path 335" d="M156.7,406.919h7.215l.718-14.521h-7.214Z" fill="#b55b52"/>
        <path id="Path_336" data-name="Path 336" d="M110.913,404.919l7.307.386,4.441-14.3-7.308-.387Z" fill="#b55b52"/>
        <path id="Path_337" data-name="Path 337" d="M118,404.727l-6.885-1.491a.547.547,0,0,0-.612.306l-2.39,5.185a.921.921,0,0,0,.661,1.284c2.412.479,3.611.591,6.638,1.246,1.863.4,6.067,1.428,8.64,1.985,2.516.545,3.459-1.914,2.456-2.372-4.5-2.055-6.377-3.865-7.6-5.551A1.525,1.525,0,0,0,118,404.727Z" fill="#263238"/>
        <path id="Path_338" data-name="Path 338" d="M163.529,406.193h-6.847a.548.548,0,0,0-.534.428l-1.239,5.573a.912.912,0,0,0,.9,1.115c2.47-.042,6.039-.187,9.144-.187,3.63,0,6.765.2,11.022.2,2.574,0,3.288-2.6,2.211-2.838-4.9-1.073-8.91-1.188-13.149-3.8A2.9,2.9,0,0,0,163.529,406.193Z" fill="#263238"/>
        <path id="Path_339" data-name="Path 339" d="M135.725,193.612C130.28,196.2,128.8,211.9,128.8,211.9l13.47,6.224a25.757,25.757,0,0,0,3.6-12.669C146.137,197.338,141.292,190.965,135.725,193.612Z" fill="#263238"/>
        <path id="Path_340" data-name="Path 340" d="M143.032,203.291c-2.432,3.775-2.2,9.616-1.36,14.552l.6.279a25.776,25.776,0,0,0,3.6-12.673c.015-.484.013-.965,0-1.433Z" opacity="0.4"/>
        <g id="Group_98" data-name="Group 98">
          <path id="Path_341" data-name="Path 341" d="M173.313,193.233s6.674,7.538.371,54.2H140.147c-.231-5.148,3-30.261-1.962-54.518a87.448,87.448,0,0,1,11.227-1.418,123.408,123.408,0,0,1,14.256,0A63,63,0,0,1,173.313,193.233Z" fill="#407bff"/>
          <path id="Path_342" data-name="Path 342" d="M173.313,193.233s6.674,7.538.371,54.2H140.147c-.231-5.148,3-30.261-1.962-54.518a87.448,87.448,0,0,1,11.227-1.418,123.408,123.408,0,0,1,14.256,0A63,63,0,0,1,173.313,193.233Z" fill="#fafafa" opacity="0.6"/>
        </g>
        <path id="Path_343" data-name="Path 343" d="M176.244,207.493l-.128-.111-6.67-3.564c-.678,10.27,3.913,16.708,6.644,19.524A146.317,146.317,0,0,0,176.244,207.493Z" opacity="0.2"/>
        <path id="Path_344" data-name="Path 344" d="M164.628,392.4l-.369,7.485h-7.218l.369-7.485Z" opacity="0.2"/>
        <path id="Path_345" data-name="Path 345" d="M115.351,390.617l7.31.387-2.293,7.373-7.31-.386Z" opacity="0.2"/>
        <path id="Path_346" data-name="Path 346" d="M148.2,170.778c1.611,6.011,2.248,9.611,5.958,12.11,5.579,3.759,12.526-.555,12.743-6.926.2-5.734-2.472-14.6-8.922-15.812A8.487,8.487,0,0,0,148.2,170.778Z" fill="#b55b52"/>
        <path id="Path_347" data-name="Path 347" d="M161.787,247.428s-7.116,47.917-11.022,65.869c-4.278,19.658-27.216,84.7-27.216,84.7l-11.224-2.43s14.384-53,17.974-80.486c1.4-10.725,3.092-28.013,5.232-42.427,2.072-13.959,4.616-25.224,4.616-25.224h21.64Z" fill="#263238"/>
        <path id="Path_348" data-name="Path 348" d="M126.236,394.247c.048.01-2.092,4.059-2.092,4.059l-12.628-2.734,1.065-3.8Z" fill="#407bff"/>
        <path id="Path_349" data-name="Path 349" d="M126.236,394.247c.048.01-2.092,4.059-2.092,4.059l-12.628-2.734,1.065-3.8Z" fill="#fff" opacity="0.6"/>
        <path id="Path_350" data-name="Path 350" d="M157.29,264.5c-8.228,1.613-7.357,32.3-6.367,48.078,2.373-11.155,5.846-32.621,8.219-47.856A2.815,2.815,0,0,0,157.29,264.5Z" opacity="0.6"/>
        <path id="Path_351" data-name="Path 351" d="M173.684,247.428s3.347,46.88,2.665,66c-.709,19.888-10.139,85.009-10.139,85.009H155.588s-.39-63.959-.862-83.491c-.515-21.294-3.086-67.519-3.086-67.519Z" fill="#263238"/>
        <path id="Path_352" data-name="Path 352" d="M168.253,394.207c.049,0-.6,4.41-.6,4.41H154.733l-.349-3.936Z" fill="#407bff"/>
        <path id="Path_353" data-name="Path 353" d="M168.253,394.207c.049,0-.6,4.41-.6,4.41H154.733l-.349-3.936Z" fill="#fff" opacity="0.6"/>
        <path id="Path_354" data-name="Path 354" d="M169.4,202.015c0,12.581,6.7,17.761,6.7,17.761l10.882-10.638a90.1,90.1,0,0,0-8.788-12.227C171.9,189.681,169.4,193.925,169.4,202.015Z" fill="#263238"/>
        <path id="Path_355" data-name="Path 355" d="M166.519,178.239a4.091,4.091,0,0,1-2.822,2.6,3.385,3.385,0,0,0-2.691,3.011l.033.042A8.636,8.636,0,0,0,166.519,178.239Z" opacity="0.2"/>
        <path id="Path_356" data-name="Path 356" d="M163.7,158.831c2.242-2.827-1.207-2.962-1.207-2.962.9-3.375-3.138-1.558-3.138-1.558-2.422-3.338-3.788.724-3.788.724-2.512-2.828-2.974,1.794-2.974,1.794-2.519-3.587-3.8,1.587-3.8,1.587-2.32-3.725-3.74,1.128-3.74,1.128-4.79-1.715-2.513,3.263-2.513,3.263-4.089.115-.809,3.278-.809,3.278-4.9.012-.579,2.817-.579,2.817-3.89,2.552.993,3.239.993,3.239-3.174,4.963,2.276,3.122,2.276,3.122-2.208,4.912,2.688,2.748,2.688,2.748-.318,4.74,2.42,3.45,3.736,2.572.254.955.728,1.966,1.608,2.081,1.708.223,2.04-3,2.04-3s1.585,1.233,2.914.565.828-2.359.828-2.359a1.671,1.671,0,0,0,1.949.035c.57-.443.573-3.626-.154-4.745l2.6-1.019s1.932-.272,1.069-2.819a7.427,7.427,0,0,1-.131-4.557c2.938-1.377.528-3.033.528-3.033C167.492,159.53,163.7,158.831,163.7,158.831Z" fill="#263238"/>
        <path id="Path_357" data-name="Path 357" d="M158.425,171.03a7.034,7.034,0,0,0,2.53,3.741c1.632,1.214,2.85.019,2.734-1.827-.1-1.662-1.079-4.3-2.879-4.789C159.038,167.669,157.958,169.226,158.425,171.03Z" fill="#b55b52"/>
      </g>
    </g>
  </g>
</svg>
