<svg xmlns="http://www.w3.org/2000/svg" width="389.266" height="372.609" viewBox="0 0 389.266 372.609">
  <g id="signin" transform="translate(-56.111 -54.952)">
    <g id="Background_Complete">
      <g id="Group_35" data-name="Group 35" transform="translate(69.005)">
        <g id="Group_33" data-name="Group 33" transform="translate(0 54.952)">
          <rect id="Rectangle_2" data-name="Rectangle 2" width="376.372" height="0.25" transform="translate(0 327.446)" fill="#ebebeb"/>
          <path id="Path_165" data-name="Path 165" d="M237.014,337.8H43.915a5.715,5.715,0,0,1-5.708-5.708V60.66a5.715,5.715,0,0,1,5.708-5.708h193.1a5.715,5.715,0,0,1,5.707,5.708V332.092A5.715,5.715,0,0,1,237.014,337.8ZM43.915,55.2a5.464,5.464,0,0,0-5.458,5.458V332.093a5.464,5.464,0,0,0,5.458,5.458h193.1a5.463,5.463,0,0,0,5.457-5.458V60.66a5.464,5.464,0,0,0-5.457-5.458H43.915Z" transform="translate(0 -54.952)" fill="#ebebeb"/>
          <path id="Path_166" data-name="Path 166" d="M453.31,337.8h-193.1a5.714,5.714,0,0,1-5.707-5.708V60.66a5.715,5.715,0,0,1,5.707-5.708h193.1a5.714,5.714,0,0,1,5.708,5.708V332.092A5.714,5.714,0,0,1,453.31,337.8ZM260.212,55.2a5.463,5.463,0,0,0-5.457,5.458V332.093a5.463,5.463,0,0,0,5.457,5.458h193.1a5.464,5.464,0,0,0,5.458-5.458V60.66A5.464,5.464,0,0,0,453.31,55.2h-193.1Z" transform="translate(-123.628 -54.952)" fill="#ebebeb"/>
        </g>
        <g id="Group_34" data-name="Group 34" transform="translate(51.279 389.208)">
          <rect id="Rectangle_3" data-name="Rectangle 3" width="25.997" height="0.25" transform="translate(0 2.714)" fill="#ebebeb"/>
          <rect id="Rectangle_4" data-name="Rectangle 4" width="45.027" height="0.25" transform="translate(60.943)" fill="#ebebeb"/>
          <rect id="Rectangle_5" data-name="Rectangle 5" width="60.792" height="0.25" transform="translate(26.998 12)" fill="#ebebeb"/>
          <rect id="Rectangle_6" data-name="Rectangle 6" width="19.235" height="0.25" transform="translate(254.58 10.32)" fill="#ebebeb"/>
          <rect id="Rectangle_7" data-name="Rectangle 7" width="55.292" height="0.25" transform="translate(190.384 10.32)" fill="#ebebeb"/>
          <rect id="Rectangle_8" data-name="Rectangle 8" width="74.467" height="0.25" transform="translate(127.005 6.098)" fill="#ebebeb"/>
        </g>
      </g>
      <g id="Group_45" data-name="Group 45">
        <g id="Group_38" data-name="Group 38">
          <g id="Group_36" data-name="Group 36">
            <path id="Path_167" data-name="Path 167" d="M169.64,295.667H115.06l-3.314-38.223h54.581Z" fill="#e6e6e6"/>
            <path id="Path_168" data-name="Path 168" d="M172.467,295.667h-54.58l-3.313-38.223h54.58Z" fill="#f0f0f0"/>
            <path id="Path_169" data-name="Path 169" d="M125.348,287.459l-1.82-21.807h38.164l1.82,21.807Z" fill="#fff"/>
          </g>
          <g id="Group_37" data-name="Group 37">
            <rect id="Rectangle_9" data-name="Rectangle 9" width="7.791" height="86.73" transform="translate(196.815 295.667)" fill="#e6e6e6"/>
            <rect id="Rectangle_10" data-name="Rectangle 10" width="5.411" height="86.73" transform="translate(201.654 295.667)" fill="#f0f0f0"/>
            <rect id="Rectangle_11" data-name="Rectangle 11" width="75.409" height="9.573" transform="translate(207.065 305.239) rotate(180)" fill="#f0f0f0"/>
            <rect id="Rectangle_12" data-name="Rectangle 12" width="7.791" height="77.157" transform="translate(126.531 305.239)" fill="#e6e6e6"/>
            <rect id="Rectangle_13" data-name="Rectangle 13" width="5.411" height="77.157" transform="translate(131.37 305.239)" fill="#f0f0f0"/>
            <rect id="Rectangle_14" data-name="Rectangle 14" width="7.791" height="77.157" transform="translate(71.073 305.239)" fill="#e6e6e6"/>
            <rect id="Rectangle_15" data-name="Rectangle 15" width="5.411" height="77.157" transform="translate(75.912 305.239)" fill="#f0f0f0"/>
            <rect id="Rectangle_16" data-name="Rectangle 16" width="7.791" height="77.157" transform="translate(147.512 305.239)" fill="#e6e6e6"/>
            <rect id="Rectangle_17" data-name="Rectangle 17" width="5.411" height="77.157" transform="translate(152.351 305.239)" fill="#f0f0f0"/>
            <rect id="Rectangle_18" data-name="Rectangle 18" width="60.582" height="9.573" transform="translate(71.073 295.667)" fill="#e6e6e6"/>
          </g>
        </g>
        <g id="Group_39" data-name="Group 39">
          <rect id="Rectangle_19" data-name="Rectangle 19" width="226.229" height="129.779" transform="translate(69.005 82.417)" fill="#e6e6e6"/>
          <rect id="Rectangle_20" data-name="Rectangle 20" width="229.45" height="129.779" transform="translate(71.831 82.417)" fill="#f0f0f0"/>
          <rect id="Rectangle_21" data-name="Rectangle 21" width="226.229" height="11.237" transform="translate(69.005 212.197)" fill="#e6e6e6"/>
          <rect id="Rectangle_22" data-name="Rectangle 22" width="229.45" height="11.237" transform="translate(81.905 212.197)" fill="#f0f0f0"/>
          <rect id="Rectangle_23" data-name="Rectangle 23" width="112.849" height="212.519" transform="translate(292.816 90.883) rotate(90)" fill="#fafafa"/>
          <path id="Path_170" data-name="Path 170" d="M95.908,203.731,145.6,90.883H169.05L119.363,203.731Z" fill="#fff"/>
          <path id="Path_171" data-name="Path 171" d="M84.216,195.306a.605.605,0,0,1-.605-.6V96.391a.605.605,0,0,1,1.21,0V194.7A.605.605,0,0,1,84.216,195.306Z" fill="#f0f0f0"/>
          <path id="Path_172" data-name="Path 172" d="M124.4,203.731,174.089,90.883h9.144L133.546,203.731Z" fill="#fff"/>
          <rect id="Rectangle_24" data-name="Rectangle 24" width="112.849" height="1.075" transform="translate(292.816 90.883) rotate(90)" fill="#e6e6e6"/>
          <path id="Path_173" data-name="Path 173" d="M303.283,103.647H77.054l-.779-9.474H302.5Z" fill="#ebebeb" opacity="0.6"/>
          <path id="Path_174" data-name="Path 174" d="M303.283,119.184H77.054l-.779-9.473H302.5Z" fill="#ebebeb" opacity="0.6"/>
          <path id="Path_175" data-name="Path 175" d="M303.283,134.721H77.054l-.779-9.473H302.5Z" fill="#ebebeb" opacity="0.6"/>
          <path id="Path_176" data-name="Path 176" d="M303.283,150.259H77.054l-.779-9.474H302.5Z" fill="#ebebeb" opacity="0.6"/>
          <path id="Path_177" data-name="Path 177" d="M303.283,165.8H77.054l-.779-9.474H302.5Z" fill="#ebebeb" opacity="0.6"/>
          <path id="Path_178" data-name="Path 178" d="M303.283,181.333H77.054l-.779-9.473H302.5Z" fill="#ebebeb" opacity="0.6"/>
        </g>
        <g id="Group_42" data-name="Group 42">
          <g id="Group_40" data-name="Group 40">
            <rect id="Rectangle_25" data-name="Rectangle 25" width="60.917" height="60.917" transform="translate(426.339 143.334) rotate(180)" fill="#ebebeb"/>
            <rect id="Rectangle_26" data-name="Rectangle 26" width="2.701" height="60.917" transform="translate(362.721 82.417)" fill="#e0e0e0"/>
            <rect id="Rectangle_27" data-name="Rectangle 27" width="44.412" height="44.412" transform="translate(418.086 135.081) rotate(180)" fill="#fff"/>
            <rect id="Rectangle_28" data-name="Rectangle 28" width="21.02" height="21.02" transform="translate(410.747 112.874) rotate(135)" fill="#f5f5f5"/>
          </g>
          <g id="Group_41" data-name="Group 41">
            <rect id="Rectangle_29" data-name="Rectangle 29" width="60.917" height="60.917" transform="translate(405.348 223.433) rotate(180)" fill="#ebebeb"/>
            <rect id="Rectangle_30" data-name="Rectangle 30" width="2.701" height="60.917" transform="translate(341.73 162.516)" fill="#e0e0e0"/>
            <rect id="Rectangle_31" data-name="Rectangle 31" width="44.412" height="44.412" transform="translate(397.095 215.18) rotate(180)" fill="#fff"/>
            <path id="Path_179" data-name="Path 179" d="M371.737,202.443h6.306a6.315,6.315,0,0,0,6.315-6.315v-6.306a6.315,6.315,0,0,0-6.315-6.315h-6.306a6.315,6.315,0,0,0-6.315,6.315v6.306A6.315,6.315,0,0,0,371.737,202.443Z" fill="#f5f5f5"/>
          </g>
        </g>
        <g id="Group_44" data-name="Group 44">
          <g id="Group_43" data-name="Group 43">
            <rect id="Rectangle_32" data-name="Rectangle 32" width="15.191" height="125.275" transform="translate(292.534 253.035)" fill="#f0f0f0"/>
            <rect id="Rectangle_33" data-name="Rectangle 33" width="145.859" height="4.089" transform="translate(294.639 378.31)" fill="#f0f0f0"/>
            <rect id="Rectangle_34" data-name="Rectangle 34" width="134.878" height="125.275" transform="translate(442.603 378.309) rotate(180)" fill="#fafafa"/>
            <path id="Path_180" data-name="Path 180" d="M416.2,326.239H334.132a14.61,14.61,0,0,1,0-29.22H416.2a14.61,14.61,0,0,1,0,29.22ZM334.132,298a13.628,13.628,0,1,0,0,27.256H416.2a13.628,13.628,0,1,0,0-27.256Z" fill="#f0f0f0"/>
            <path id="Path_181" data-name="Path 181" d="M416.2,362.585H334.132a14.61,14.61,0,0,1,0-29.22H416.2a14.61,14.61,0,0,1,0,29.22Zm-82.064-28.238a13.628,13.628,0,1,0,0,27.256H416.2a13.628,13.628,0,1,0,0-27.256Z" fill="#f0f0f0"/>
            <path id="Path_182" data-name="Path 182" d="M387.547,308.478H362.781a3.057,3.057,0,0,1-3.048-3.048h0a3.057,3.057,0,0,1,3.048-3.048h24.766a3.057,3.057,0,0,1,3.048,3.048h0A3.057,3.057,0,0,1,387.547,308.478Z" fill="#ebebeb"/>
            <path id="Path_183" data-name="Path 183" d="M416.2,289.893H334.132a14.61,14.61,0,0,1,0-29.22H416.2a14.61,14.61,0,0,1,0,29.22Zm-82.064-28.239a13.628,13.628,0,1,0,0,27.256H416.2a13.628,13.628,0,1,0,0-27.256Z" fill="#f0f0f0"/>
            <path id="Path_184" data-name="Path 184" d="M387.547,272.132H362.781a3.057,3.057,0,0,1-3.048-3.048h0a3.057,3.057,0,0,1,3.048-3.048h24.766a3.057,3.057,0,0,1,3.048,3.048h0A3.057,3.057,0,0,1,387.547,272.132Z" fill="#ebebeb"/>
            <path id="Path_185" data-name="Path 185" d="M387.547,344.824H362.781a3.057,3.057,0,0,1-3.048-3.048h0a3.057,3.057,0,0,1,3.048-3.048h24.766a3.057,3.057,0,0,1,3.048,3.048h0A3.056,3.056,0,0,1,387.547,344.824Z" fill="#ebebeb"/>
          </g>
          <rect id="Rectangle_35" data-name="Rectangle 35" width="137.652" height="6.368" transform="translate(307.725 246.667)" fill="#f0f0f0"/>
          <rect id="Rectangle_36" data-name="Rectangle 36" width="18.168" height="6.368" transform="translate(307.725 253.034) rotate(180)" fill="#e6e6e6"/>
        </g>
      </g>
    </g>
    <g id="Shadow_1_">
      <ellipse id="_x3C_Path_x3E__212_" cx="193.889" cy="11.323" rx="193.889" ry="11.323" transform="translate(56.111 404.915)" fill="#f5f5f5"/>
    </g>
    <g id="Terms_and_Conditions">
      <g id="Group_48" data-name="Group 48">
        <g id="Group_46" data-name="Group 46">
          <path id="Path_186" data-name="Path 186" d="M413.642,148.229H262.925s-27.155,24.965-27.155,85.786c0,52.269,20.585,123.133,12.859,152.15-5.828,21.888-34.1,25.644-47.644,26.17H344.44s47.179,2.847,54.9-26.17-12.859-99.881-12.859-152.15C386.487,173.194,413.642,148.229,413.642,148.229Z" fill="#407bff"/>
          <path id="Path_187" data-name="Path 187" d="M413.642,148.229H262.925s-27.155,24.965-27.155,85.786c0,52.269,20.585,123.133,12.859,152.15-5.828,21.888-34.1,25.644-47.644,26.17H344.44s47.179,2.847,54.9-26.17-12.859-99.881-12.859-152.15C386.487,173.194,413.642,148.229,413.642,148.229Z" fill="#fff" opacity="0.7"/>
        </g>
        <g id="Group_47" data-name="Group 47" opacity="0.8">
          <path id="Path_188" data-name="Path 188" d="M372.64,212.33H252.1c3.41-26.74,12.6-42.3,17.67-49.1H385.95C380.3,175.13,374.92,191.34,372.64,212.33Z" fill="#407bff" opacity="0.8"/>
          <path id="Path_189" data-name="Path 189" d="M371.63,226.51H250.92c.1-2.43.24-4.79.44-7.07H372Q371.745,222.89,371.63,226.51Z" fill="#407bff" opacity="0.3"/>
          <path id="Path_190" data-name="Path 190" d="M288.767,240.68H250.88q-.105-3.39-.11-6.67v-.39h37.9v.39C288.667,236.21,288.7,238.44,288.767,240.68Z" fill="#407bff" opacity="0.3"/>
          <path id="Path_191" data-name="Path 191" d="M372.35,254.85H251.73c-.21-2.38-.38-4.74-.51-7.06H371.89Q372.07,251.3,372.35,254.85Z" fill="#407bff" opacity="0.3"/>
          <path id="Path_192" data-name="Path 192" d="M373.68,269.03H253.16q-.42-3.555-.78-7.07H372.95C373.17,264.31,373.42,266.67,373.68,269.03Z" fill="#407bff" opacity="0.3"/>
          <path id="Path_193" data-name="Path 193" d="M375.42,283.2H254.98c-.33-2.36-.64-4.72-.94-7.06H374.52Q374.94,279.665,375.42,283.2Z" fill="#407bff" opacity="0.3"/>
          <path id="Path_194" data-name="Path 194" d="M377.41,297.37H257.03q-.525-3.54-1.04-7.06H376.4C376.73,292.66,377.07,295.02,377.41,297.37Z" fill="#407bff" opacity="0.3"/>
          <path id="Path_195" data-name="Path 195" d="M379.54,311.55H259.17c-.19-1.29-.39-2.6-.59-3.91-.16-1.05-.32-2.1-.48-3.16H378.47C378.83,306.84,379.18,309.2,379.54,311.55Z" fill="#407bff" opacity="0.3"/>
          <path id="Path_196" data-name="Path 196" d="M261.27,325.72q-.495-3.495-1.03-7.06H380.62c.35,2.36.71,4.71,1.05,7.06Z" fill="#407bff" opacity="0.3"/>
          <path id="Path_197" data-name="Path 197" d="M263.18,339.89c-.28-2.31-.59-4.67-.91-7.06h100.4c.34,2.38.66,4.74.96,7.06Z" fill="#407bff" opacity="0.3"/>
          <path id="Path_198" data-name="Path 198" d="M264.66,354.07q-.285-3.465-.66-7.07H384.52c.27,2.42.52,4.78.73,7.07Z" fill="#407bff" opacity="0.3"/>
          <path id="Path_199" data-name="Path 199" d="M265.35,368.24c-.01-2.28-.09-4.64-.22-7.06h63.59c.16,2.47.25,4.83.28,7.06Z" fill="#407bff" opacity="0.3"/>
        </g>
        <path id="Path_200" data-name="Path 200" d="M356.014,404.679c-7.651,1.39-15.4.329-23.092-.043a61.146,61.146,0,0,0-11.065.3c-3.592.48-7.176,1.416-10.806,1.1a20.032,20.032,0,0,0,3.373-2.29.379.379,0,0,0-.165-.627c-11.29-3.961-21.573,6.828-32.815,4.3,3.182-2.361,7.674-2.408,10.395-5.505a.38.38,0,0,0-.265-.64c-10.073-.157-19.587,3.748-29.545,4.617-.477.042-.482.792,0,.75,9.653-.843,18.9-4.528,28.629-4.609-2.906,2.6-7.346,2.692-10.309,5.309a.378.378,0,0,0,.165.627c11.333,3.129,21.659-7.687,32.853-4.342a19.223,19.223,0,0,1-3.786,2.31.378.378,0,0,0,.09.685c3.689.618,7.3-.17,10.935-.749a59.685,59.685,0,0,1,12.317-.484c7.766.376,15.566,1.42,23.292.017C356.688,405.317,356.487,404.594,356.014,404.679Z" fill="#407bff"/>
      </g>
    </g>
    <g id="Character">
      <g id="Group_54" data-name="Group 54">
        <g id="Group_53" data-name="Group 53">
          <path id="Path_201" data-name="Path 201" d="M151.876,185.128c.634.808,1.44,1.761,2.184,2.64q1.146,1.34,2.352,2.634c1.611,1.717,3.239,3.412,4.96,4.978a44.951,44.951,0,0,0,10.981,7.7c.481.217.964.424,1.447.6.252.1.471.174.678.238a5.4,5.4,0,0,0,.657.191,16.194,16.194,0,0,0,2.933.456,32.2,32.2,0,0,0,6.617-.377,62.181,62.181,0,0,0,6.9-1.464c2.294-.6,4.646-1.344,6.842-2.114l2.023,3.965a56.052,56.052,0,0,1-14.3,6.357,34.573,34.573,0,0,1-8.16,1.317,21.741,21.741,0,0,1-4.469-.3c-.381-.057-.767-.142-1.154-.24s-.773-.189-1.1-.3c-.7-.2-1.378-.442-2.047-.693a47.161,47.161,0,0,1-13.76-8.684,73.973,73.973,0,0,1-5.671-5.461q-1.335-1.437-2.606-2.929c-.867-1.012-1.641-1.977-2.508-3.149Z" fill="#ffb573"/>
          <path id="Path_202" data-name="Path 202" d="M141.713,182.3c-.22,5.6,1.952,15.694,1.952,15.694l13.862-1.679s.508-14.774-2.179-18.345C150.835,171.972,141.921,177.012,141.713,182.3Z" fill="#407bff"/>
          <path id="Path_203" data-name="Path 203" d="M196.618,202.055l6.5-5.941.827,6.4s-2.691,3.6-5.741,2.09Z" fill="#ffb573"/>
          <path id="Path_204" data-name="Path 204" d="M206.372,196.46l2.75,3.6-5.181,2.446-.827-6.4Z" fill="#ffb573"/>
          <g id="Group_50" data-name="Group 50">
            <path id="Path_205" data-name="Path 205" d="M204.734,180.268c.688-.042,1.066,0,1.56.005a3.97,3.97,0,0,1,.625.043l.522.07a2.637,2.637,0,0,1,1.238.5,1.461,1.461,0,0,1,.342.73l.232.759.927,3.036,1.855,6.072,3.71,12.145c2.451,8.1,5,16.18,7.363,24.3,4.852,16.218,9.446,32.5,13.953,48.81s8.749,32.683,13.1,49.029c4.421,16.329,8.263,32.809,9.651,49.924a4.962,4.962,0,0,1-9.464,2.452c-7.1-15.636-11.741-31.908-15.805-48.33-4.129-16.4-8.37-32.781-12.351-49.224s-7.869-32.911-11.5-49.445c-1.879-8.251-3.573-16.549-5.365-24.822l-2.654-12.419-1.327-6.209-.663-3.1-.166-.776a1.471,1.471,0,0,1-.055-.8,2.622,2.622,0,0,1,.84-1.037l.423-.314a4.073,4.073,0,0,1,.526-.341c.428-.247.74-.465,1.361-.762A3.076,3.076,0,0,1,204.734,180.268Z" fill="#263238"/>
            <g id="Group_49" data-name="Group 49">
              <path id="Path_206" data-name="Path 206" d="M258.863,378.165a1.083,1.083,0,0,0-1.3-.754l-2.2.57-2.2.57a1.084,1.084,0,0,0-.773,1.292c1.374,6.292.031,10.808,1.466,16.345,1.511,5.833,8.08,8.818,8.08,8.818l-.214-2.485,1.019,2.276s4.293-5.8,2.782-11.632C264.084,387.629,260.717,384.333,258.863,378.165Z" fill="#407bff"/>
              <path id="Path_207" data-name="Path 207" d="M258.863,378.165a1.083,1.083,0,0,0-1.3-.754l-2.2.57-2.2.57a1.084,1.084,0,0,0-.773,1.292c1.374,6.292.031,10.808,1.466,16.345,1.511,5.833,8.08,8.818,8.08,8.818l-.214-2.485,1.019,2.276s4.293-5.8,2.782-11.632C264.084,387.629,260.717,384.333,258.863,378.165Z" fill="#fff" opacity="0.3"/>
            </g>
            <path id="Path_208" data-name="Path 208" d="M260.574,392.622a1.377,1.377,0,1,1-1.678-.987A1.376,1.376,0,0,1,260.574,392.622Z" fill="#263238"/>
            <path id="Path_209" data-name="Path 209" d="M261.8,402.824a.312.312,0,0,1-.38-.224l-2.476-9.555a.312.312,0,0,1,.6-.156l2.475,9.555A.31.31,0,0,1,261.8,402.824Z" fill="#263238"/>
            <path id="Path_210" data-name="Path 210" d="M253.7,343.816l-13.477,3.492a1.459,1.459,0,0,1-1.773-1.043h0a1.459,1.459,0,0,1,1.043-1.773L252.969,341a1.459,1.459,0,0,1,1.773,1.043h0A1.459,1.459,0,0,1,253.7,343.816Z" fill="#407bff"/>
          </g>
          <path id="Path_211" data-name="Path 211" d="M185.275,160.8c-.241.6-.118,1.227.274,1.4s.907-.179,1.148-.78.118-1.227-.274-1.4S185.516,160.2,185.275,160.8Z" fill="#263238"/>
          <path id="Path_212" data-name="Path 212" d="M186.236,159.979l1.61.209S186.653,160.995,186.236,159.979Z" fill="#263238"/>
          <path id="Path_213" data-name="Path 213" d="M185.546,161.6a17.864,17.864,0,0,0,.6,4.766,2.813,2.813,0,0,1-2.3-.526Z" fill="#ed893e"/>
          <path id="Path_214" data-name="Path 214" d="M187.691,157.141a.387.387,0,0,1-.167-.083,3.171,3.171,0,0,0-2.709-.777.383.383,0,0,1-.194-.74,3.934,3.934,0,0,1,3.4.937.382.382,0,0,1,.04.539A.377.377,0,0,1,187.691,157.141Z" fill="#263238"/>
          <path id="Path_215" data-name="Path 215" d="M164.071,160.49c.433,4.865-1.2,12.84-4.872,15.554,0,0,2.769,5.12,11.64,6.311,9.754,1.309,5.172-4.181,5.172-4.181-5.19-1.977-4.636-5.879-3.318-9.436Z" fill="#ffb573"/>
          <path id="Path_216" data-name="Path 216" d="M190.645,186.475c.763,4.547,1.712,9.256,2.705,13.842.526,2.294,1.062,4.588,1.682,6.843.574,2.273,1.237,4.5,1.932,6.712.374,1.085.713,2.2,1.113,3.261l.6,1.6.147.393.035.114a1.164,1.164,0,0,0,.074.182,1.56,1.56,0,0,0,.94.731,8.541,8.541,0,0,0,2.454.468,29.052,29.052,0,0,0,6.4-.523c2.216-.393,4.543-.934,6.713-1.539l1.832,4.056c-1.149.689-2.241,1.244-3.4,1.8s-2.32,1.056-3.531,1.5a29.574,29.574,0,0,1-7.853,1.873,14.61,14.61,0,0,1-4.719-.321,9.454,9.454,0,0,1-5.087-3.066,9.036,9.036,0,0,1-.924-1.326c-.134-.23-.246-.463-.364-.7l-.2-.444-.777-1.751c-.514-1.169-.961-2.344-1.429-3.521-.86-2.362-1.679-4.731-2.394-7.113s-1.341-4.781-1.952-7.18c-1.2-4.82-2.161-9.585-2.888-14.581Z" fill="#ffb573"/>
          <path id="Path_217" data-name="Path 217" d="M214.445,218.837l3.86-3.062,1.734,5.947s-5.281,3.819-6.693-.673Z" fill="#ffb573"/>
          <path id="Path_218" data-name="Path 218" d="M221.786,216.832l1.381,4.335-3.128.555-1.734-5.947Z" fill="#ffb573"/>
          <path id="Path_219" data-name="Path 219" d="M149.667,407.411l8.068.6,2.4-18.528-8.069-.6Z" fill="#ffb573"/>
          <path id="Path_220" data-name="Path 220" d="M97.992,383.871l6.99,4.25L116.607,373.6l-6.989-4.251Z" fill="#ffb573"/>
          <path id="Path_221" data-name="Path 221" d="M109.857,390.258a1.009,1.009,0,0,1-.292.036c-1.028-.022-2.19-1.568-2.791-2.487a.191.191,0,0,1,.2-.292c.328.066,3.215.671,3.6,1.637a.651.651,0,0,1-.094.641A1.16,1.16,0,0,1,109.857,390.258Zm-2.494-2.265c.844,1.2,1.655,1.907,2.21,1.919a.693.693,0,0,0,.589-.342.272.272,0,0,0,.05-.278C110.011,388.783,108.511,388.269,107.363,387.993Z" fill="#407bff"/>
          <path id="Path_222" data-name="Path 222" d="M109.429,387.76a5.778,5.778,0,0,1-2.545.127.189.189,0,0,1-.134-.134.192.192,0,0,1,.046-.184c.066-.069,1.655-1.7,2.819-1.649a1.026,1.026,0,0,1,.783.387.667.667,0,0,1,.1.838A1.879,1.879,0,0,1,109.429,387.76Zm-2.1-.18c.975.106,2.54-.175,2.842-.643.05-.078.087-.192-.074-.388a.645.645,0,0,0-.5-.247A4.271,4.271,0,0,0,107.333,387.58Z" fill="#407bff"/>
          <path id="Path_223" data-name="Path 223" d="M107.079,386.563l-6.631-6.384a.643.643,0,0,0-.848-.062l-5.658,4.367a1.293,1.293,0,0,0-.035,1.93c2.349,2.187,3.59,3.128,6.506,5.936,1.794,1.727,4.241,4.432,6.718,6.817,2.423,2.333,4.9.134,4.074-1.075-3.7-5.419-3.144-7.455-3.48-10.226A2.171,2.171,0,0,0,107.079,386.563Z" fill="#263238"/>
          <path id="Path_224" data-name="Path 224" d="M161.239,408.268a13.6,13.6,0,0,1-2.535-.289.19.19,0,0,1-.151-.161.192.192,0,0,1,.1-.2c.37-.19,3.643-1.838,4.61-1.287a.6.6,0,0,1,.309.509,1.077,1.077,0,0,1-.37.929A3.071,3.071,0,0,1,161.239,408.268Zm-1.9-.56c1.78.3,3.107.218,3.609-.222a.707.707,0,0,0,.239-.617.221.221,0,0,0-.115-.2C162.543,406.369,160.686,407.072,159.344,407.708Z" fill="#407bff"/>
          <path id="Path_225" data-name="Path 225" d="M158.742,407.983a.182.182,0,0,1-.112-.037.193.193,0,0,1-.078-.175c.015-.144.388-3.444,2.194-3.444.051,0,.1,0,.157.008.523.053.673.318.707.53.146.912-1.807,2.661-2.791,3.1A.162.162,0,0,1,158.742,407.983Zm2.011-3.272c-1.164,0-1.623,1.917-1.766,2.737,1.006-.6,2.334-1.974,2.246-2.52-.007-.044-.029-.176-.368-.211A1.08,1.08,0,0,0,160.753,404.711Z" fill="#407bff"/>
          <path id="Path_226" data-name="Path 226" d="M158.239,406.857h-9.07a.658.658,0,0,0-.658.551l-1.218,7.176a1.26,1.26,0,0,0,1.257,1.436c3.163-.054,4.692-.24,8.68-.24,2.454,0,7.522.255,10.911.255,3.314,0,3.655-3.35,2.252-3.654-6.292-1.361-8.733-3.237-10.818-5.027A2.056,2.056,0,0,0,158.239,406.857Z" fill="#263238"/>
          <g id="Group_51" data-name="Group 51">
            <path id="Path_227" data-name="Path 227" d="M160.129,389.482l-1.33,10.3-7.976-1.336,1.234-9.556Z" opacity="0.2"/>
            <path id="Path_228" data-name="Path 228" d="M109.613,369.352l6.993,4.253-4.812,6-7.143-4.066Z" opacity="0.2"/>
          </g>
          <path id="Path_229" data-name="Path 229" d="M145.6,224.659c6.316.845,19.715,2.646,32.674,4.39,12.659-45.819,8.927-47.076,8.925-47.077a32.46,32.46,0,0,0-4.448-1.741q-2.312-.836-4.669-1.533a83.632,83.632,0,0,0-28.6-3.3,4.278,4.278,0,0,0-3.206,1.824,4.691,4.691,0,0,0-.35.627,4.556,4.556,0,0,0-.393,2.436C148.32,204.4,147.43,212.324,145.6,224.659Z" fill="#407bff"/>
          <path id="Path_230" data-name="Path 230" d="M181.454,196.028a27.332,27.332,0,0,0,1.767,14.044c2.173-8.943,3.348-15.042,3.934-19.2C184.662,190.691,182.069,191.647,181.454,196.028Z" opacity="0.2"/>
          <path id="Path_231" data-name="Path 231" d="M186.914,181.838c5.594,3.206,9.483,10.834,10.656,15.266l-11.916,10.919s-6.182-14.371-5.684-18.836C180.473,184.667,184.8,180.626,186.914,181.838Z" fill="#407bff"/>
          <path id="Path_232" data-name="Path 232" d="M165.838,150.436c-2.509,7.58-3.732,10.73-1.526,16.135,3.318,8.131,13.152,9.845,17.869,3.238,4.246-5.947,7.635-17.344,1.593-23.414A10.678,10.678,0,0,0,165.838,150.436Z" fill="#ffb573"/>
          <path id="Path_233" data-name="Path 233" d="M178.27,157.161a7.232,7.232,0,0,0-.239,4.349c.5,2.024,2.006,2.166,2.926.875.827-1.162,1.567-3.614.56-5.295C180.525,155.434,178.917,155.632,178.27,157.161Z" fill="#ffb573"/>
          <path id="Path_234" data-name="Path 234" d="M168.556,141c-5.393-3-15.111,5.778-17.556,20.109-1.751,10.264,20.161,15.224,34,15.057-.914-2.417-6.664-9.7-2.994-16.7,2.666-5.091,5.708-3.917,5.906-9.839C188.157,142.167,178.278,137.167,168.556,141Z" fill="#263238"/>
          <path id="Path_235" data-name="Path 235" d="M180.854,144.222c6.275-.611,12.591,5.556,7.9,11.707a9.945,9.945,0,0,0-8.238-1.985C177.654,154.572,180.854,144.222,180.854,144.222Z" fill="#263238"/>
          <path id="Path_236" data-name="Path 236" d="M169.647,227.888s-12.687,53.625-18.616,84.43c-6.256,32.5-36.27,66.359-36.27,66.359l-10.194-5.684s18.885-30.907,25.012-61.252c12.437-61.6,4.017-74.009,16.022-87.08Z" fill="#263238"/>
          <path id="Path_237" data-name="Path 237" d="M115.77,379.634l-12.727-7.1,1.859-3.76,14.276,6.568Z" fill="#407bff"/>
          <path id="Path_238" data-name="Path 238" d="M162.9,239.544c-9.865,8.563-8.8,38.954-7.766,52.651,4.14-19.472,9.115-41.157,12.032-53.706C166.132,237.712,164.718,237.97,162.9,239.544Z" opacity="0.2"/>
          <path id="Path_239" data-name="Path 239" d="M177.787,229.075s5.708,63.661,2.594,87.945c-3.239,25.259-19.721,80.214-19.721,80.214l-11.638-1.5s9.454-54.457,11.135-79.465c1.832-27.263-6.3-90.4-6.3-90.4Z" fill="#263238"/>
          <path id="Path_240" data-name="Path 240" d="M163.135,397.9l-16.587-2.142.255-4.9,18,1.745Z" fill="#407bff"/>
          <g id="Group_52" data-name="Group 52">
            <path id="Path_241" data-name="Path 241" d="M145.313,222.692l-1.782,2.706c-.138.21.106.476.484.526l34.268,4.6c.295.04.554-.071.592-.252l.6-2.864c.042-.2-.2-.4-.518-.446l-33.089-4.441A.583.583,0,0,0,145.313,222.692Z" fill="#407bff"/>
            <path id="Path_242" data-name="Path 242" d="M145.313,222.692l-1.782,2.706c-.138.21.106.476.484.526l34.268,4.6c.295.04.554-.071.592-.252l.6-2.864c.042-.2-.2-.4-.518-.446l-33.089-4.441A.583.583,0,0,0,145.313,222.692Z" opacity="0.5"/>
          </g>
          <path id="Path_243" data-name="Path 243" d="M149.367,226.961l-.886-.119c-.176-.024-.3-.132-.277-.241l.816-3.716c.024-.109.188-.178.364-.155l.886.119c.176.024.3.132.277.241l-.816,3.716C149.707,226.915,149.543,226.985,149.367,226.961Z" fill="#263238"/>
          <path id="Path_244" data-name="Path 244" d="M171.749,230.017l-.886-.119c-.176-.024-.3-.132-.278-.241l.816-3.716c.024-.109.188-.178.364-.155l.886.119c.176.024.3.132.277.241l-.816,3.716C172.089,229.971,171.925,230.04,171.749,230.017Z" fill="#263238"/>
        </g>
      </g>
    </g>
  </g>
</svg>
